<svg xmlns="http://www.w3.org/2000/svg" xmlns:xlink="http://www.w3.org/1999/xlink" width="64" zoomAndPan="magnify" viewBox="0 0 48 48" height="64" preserveAspectRatio="xMidYMid meet" version="1.0"><defs><clipPath id="4d8842ec9f"><path d="M 17.652344 17.164062 L 30.972656 17.164062 L 30.972656 30.480469 L 17.652344 30.480469 Z M 17.652344 17.164062 " clip-rule="nonzero"/></clipPath><clipPath id="f2150fecb9"><path d="M 17.679688 23.824219 L 24.320312 17.183594 L 30.957031 23.824219 L 24.320312 30.460938 Z M 17.679688 23.824219 " clip-rule="nonzero"/></clipPath><clipPath id="f3361a7829"><path d="M 17.679688 23.824219 L 24.320312 17.183594 L 30.957031 23.824219 L 24.320312 30.460938 Z M 17.679688 23.824219 " clip-rule="nonzero"/></clipPath><clipPath id="9e5b81c18a"><path d="M 33.835938 23.75 L 47.148438 23.75 L 47.148438 37.066406 L 33.835938 37.066406 Z M 33.835938 23.75 " clip-rule="nonzero"/></clipPath><clipPath id="9761229dd5"><path d="M 47.117188 30.394531 L 40.480469 37.03125 L 33.84375 30.394531 L 40.480469 23.757812 Z M 47.117188 30.394531 " clip-rule="nonzero"/></clipPath><clipPath id="153068275e"><path d="M 47.117188 30.394531 L 40.480469 37.03125 L 33.84375 30.394531 L 40.480469 23.757812 Z M 47.117188 30.394531 " clip-rule="nonzero"/></clipPath><clipPath id="5e8e9e9e90"><path d="M 1.347656 10.480469 L 14.667969 10.480469 L 14.667969 23.796875 L 1.347656 23.796875 Z M 1.347656 10.480469 " clip-rule="nonzero"/></clipPath><clipPath id="cb3e52a8d3"><path d="M 1.375 17.117188 L 8.011719 10.480469 L 14.648438 17.117188 L 8.011719 23.757812 Z M 1.375 17.117188 " clip-rule="nonzero"/></clipPath><clipPath id="77cb7a9950"><path d="M 1.375 17.117188 L 8.011719 10.480469 L 14.648438 17.117188 L 8.011719 23.757812 Z M 1.375 17.117188 " clip-rule="nonzero"/></clipPath><clipPath id="d9ab292995"><path d="M 24.238281 33.347656 L 37.558594 33.347656 L 37.558594 46.65625 L 24.238281 46.65625 Z M 24.238281 33.347656 " clip-rule="nonzero"/></clipPath><clipPath id="06d1920b6d"><path d="M 37.515625 39.996094 L 30.878906 46.632812 L 24.238281 39.996094 L 30.878906 33.359375 Z M 37.515625 39.996094 " clip-rule="nonzero"/></clipPath><clipPath id="be58d56e4f"><path d="M 37.515625 39.996094 L 30.878906 46.632812 L 24.238281 39.996094 L 30.878906 33.359375 Z M 37.515625 39.996094 " clip-rule="nonzero"/></clipPath><clipPath id="73a6f59c35"><path d="M 10.96875 0.859375 L 24.289062 0.859375 L 24.289062 14.160156 L 10.96875 14.160156 Z M 10.96875 0.859375 " clip-rule="nonzero"/></clipPath><clipPath id="bc5642ee3a"><path d="M 10.976562 7.515625 L 17.617188 0.878906 L 24.253906 7.515625 L 17.617188 14.152344 Z M 10.976562 7.515625 " clip-rule="nonzero"/></clipPath><clipPath id="eaf0ee87c9"><path d="M 10.976562 7.515625 L 17.617188 0.878906 L 24.253906 7.515625 L 17.617188 14.152344 Z M 10.976562 7.515625 " clip-rule="nonzero"/></clipPath><clipPath id="dbd5f09118"><path d="M 33.835938 10.480469 L 47.148438 10.480469 L 47.148438 23.796875 L 33.835938 23.796875 Z M 33.835938 10.480469 " clip-rule="nonzero"/></clipPath><clipPath id="ce951a2a4e"><path d="M 47.117188 17.117188 L 40.480469 23.757812 L 33.84375 17.117188 L 40.480469 10.480469 Z M 47.117188 17.117188 " clip-rule="nonzero"/></clipPath><clipPath id="afe0e88d22"><path d="M 47.117188 17.117188 L 40.480469 23.757812 L 33.84375 17.117188 L 40.480469 10.480469 Z M 47.117188 17.117188 " clip-rule="nonzero"/></clipPath><clipPath id="72754c7c95"><path d="M 1.347656 23.75 L 14.667969 23.75 L 14.667969 37.066406 L 1.347656 37.066406 Z M 1.347656 23.75 " clip-rule="nonzero"/></clipPath><clipPath id="fafbba6230"><path d="M 1.375 30.394531 L 8.011719 23.757812 L 14.648438 30.394531 L 8.011719 37.03125 Z M 1.375 30.394531 " clip-rule="nonzero"/></clipPath><clipPath id="86e5cb6dfc"><path d="M 1.375 30.394531 L 8.011719 23.757812 L 14.648438 30.394531 L 8.011719 37.03125 Z M 1.375 30.394531 " clip-rule="nonzero"/></clipPath><clipPath id="388e6faa9c"><path d="M 10.921875 33.347656 L 24.289062 33.347656 L 24.289062 46.65625 L 10.921875 46.65625 Z M 10.921875 33.347656 " clip-rule="nonzero"/></clipPath><clipPath id="086dc2d860"><path d="M 24.238281 39.996094 L 17.601562 46.632812 L 10.964844 39.996094 L 17.601562 33.359375 Z M 24.238281 39.996094 " clip-rule="nonzero"/></clipPath><clipPath id="cf70bd7bd3"><path d="M 24.238281 39.996094 L 17.601562 46.632812 L 10.964844 39.996094 L 17.601562 33.359375 Z M 24.238281 39.996094 " clip-rule="nonzero"/></clipPath><clipPath id="4dc0c3889b"><path d="M 24.238281 0.859375 L 37.558594 0.859375 L 37.558594 14.160156 L 24.238281 14.160156 Z M 24.238281 0.859375 " clip-rule="nonzero"/></clipPath><clipPath id="742b1d7753"><path d="M 24.253906 7.515625 L 30.890625 0.878906 L 37.527344 7.515625 L 30.890625 14.152344 Z M 24.253906 7.515625 " clip-rule="nonzero"/></clipPath><clipPath id="b82fe18f0a"><path d="M 24.253906 7.515625 L 30.890625 0.878906 L 37.527344 7.515625 L 30.890625 14.152344 Z M 24.253906 7.515625 " clip-rule="nonzero"/></clipPath></defs><g clip-path="url(#4d8842ec9f)"><g clip-path="url(#f2150fecb9)"><g clip-path="url(#f3361a7829)"><path fill="#cef009" d="M 17.679688 23.824219 L 24.320312 17.183594 L 30.957031 23.824219 L 24.320312 30.460938 Z M 17.679688 23.824219 " fill-opacity="1" fill-rule="nonzero"/></g></g></g><g clip-path="url(#9e5b81c18a)"><g clip-path="url(#9761229dd5)"><g clip-path="url(#153068275e)"><path fill="#cef009" d="M 47.117188 30.394531 L 40.480469 37.03125 L 33.84375 30.394531 L 40.480469 23.757812 Z M 47.117188 30.394531 " fill-opacity="1" fill-rule="nonzero"/></g></g></g><g clip-path="url(#5e8e9e9e90)"><g clip-path="url(#cb3e52a8d3)"><g clip-path="url(#77cb7a9950)"><path fill="#cef009" d="M 1.375 17.117188 L 8.011719 10.480469 L 14.648438 17.117188 L 8.011719 23.757812 Z M 1.375 17.117188 " fill-opacity="1" fill-rule="nonzero"/></g></g></g><g clip-path="url(#d9ab292995)"><g clip-path="url(#06d1920b6d)"><g clip-path="url(#be58d56e4f)"><path fill="#cef009" d="M 37.515625 39.996094 L 30.878906 46.632812 L 24.238281 39.996094 L 30.878906 33.359375 Z M 37.515625 39.996094 " fill-opacity="1" fill-rule="nonzero"/></g></g></g><g clip-path="url(#73a6f59c35)"><g clip-path="url(#bc5642ee3a)"><g clip-path="url(#eaf0ee87c9)"><path fill="#cef009" d="M 10.976562 7.515625 L 17.617188 0.878906 L 24.253906 7.515625 L 17.617188 14.152344 Z M 10.976562 7.515625 " fill-opacity="1" fill-rule="nonzero"/></g></g></g><g clip-path="url(#dbd5f09118)"><g clip-path="url(#ce951a2a4e)"><g clip-path="url(#afe0e88d22)"><path fill="#cef009" d="M 47.117188 17.117188 L 40.480469 23.757812 L 33.84375 17.117188 L 40.480469 10.480469 Z M 47.117188 17.117188 " fill-opacity="1" fill-rule="nonzero"/></g></g></g><g clip-path="url(#72754c7c95)"><g clip-path="url(#fafbba6230)"><g clip-path="url(#86e5cb6dfc)"><path fill="#cef009" d="M 1.375 30.394531 L 8.011719 23.757812 L 14.648438 30.394531 L 8.011719 37.03125 Z M 1.375 30.394531 " fill-opacity="1" fill-rule="nonzero"/></g></g></g><g clip-path="url(#388e6faa9c)"><g clip-path="url(#086dc2d860)"><g clip-path="url(#cf70bd7bd3)"><path fill="#cef009" d="M 24.238281 39.996094 L 17.601562 46.632812 L 10.964844 39.996094 L 17.601562 33.359375 Z M 24.238281 39.996094 " fill-opacity="1" fill-rule="nonzero"/></g></g></g><g clip-path="url(#4dc0c3889b)"><g clip-path="url(#742b1d7753)"><g clip-path="url(#b82fe18f0a)"><path fill="#cef009" d="M 24.253906 7.515625 L 30.890625 0.878906 L 37.527344 7.515625 L 30.890625 14.152344 Z M 24.253906 7.515625 " fill-opacity="1" fill-rule="nonzero"/></g></g></g></svg>